<svg width="295" height="124" viewBox="0 0 295 124" fill="none" xmlns="http://www.w3.org/2000/svg">
<path d="M20.06 60.475V7.08H0V0H48.085V7.08H28.025V60.475H20.06ZM117.705 60.475V0H144.55C150.155 0 154.285 0.59 156.94 1.77C159.89 2.655 161.955 4.72 163.725 7.375C165.495 10.03 166.085 13.275 166.085 16.52C166.085 20.945 164.905 24.485 161.955 27.435C159.3 30.385 154.875 32.155 149.27 33.04C151.335 33.925 152.81 35.105 153.99 35.99C156.35 38.055 158.415 41.005 160.775 43.955L171.1 60.475H161.07L153.105 48.085L147.205 39.53C145.73 37.76 144.55 36.285 143.075 35.695L139.535 33.925L135.11 33.63H125.965V60.475H117.705ZM125.965 26.845H143.075C146.615 26.845 149.565 26.255 151.63 25.665C153.695 24.78 155.17 23.6 156.35 22.125C157.53 20.355 157.825 18.585 157.825 16.52C157.825 13.57 156.94 11.21 154.875 9.44C152.81 7.67 149.565 6.785 145.14 6.785H125.965V26.845ZM181.425 60.475V0H208.27C213.58 0 217.71 0.59 220.66 1.77C223.315 2.655 225.675 4.72 227.445 7.375C228.92 10.03 229.805 13.275 229.805 16.52C229.805 20.945 228.33 24.485 225.675 27.435C223.02 30.385 218.595 32.155 212.695 33.04C215.055 33.925 216.53 35.105 217.71 35.99C220.07 38.055 222.135 41.005 224.2 43.955L234.82 60.475H224.79L216.825 48.085L210.925 39.53C209.45 37.76 207.975 36.285 206.795 35.695L203.255 33.925L198.83 33.63H189.39V60.475H181.425ZM189.39 26.845H206.795C210.335 26.845 213.285 26.255 215.35 25.665C217.415 24.78 218.89 23.6 220.07 22.125C220.955 20.355 221.545 18.585 221.545 16.52C221.545 13.57 220.66 11.21 218.595 9.44C216.53 7.67 212.99 6.785 208.565 6.785H189.39V26.845ZM238.36 60.475L261.665 0H270.22L295 60.475H285.855L278.775 42.185H253.405L246.915 60.475H238.36ZM255.765 35.695H276.415L269.925 18.88L265.795 6.49L262.55 17.995L255.765 35.695Z" fill="#404040"/>
<path fill-rule="evenodd" clip-rule="evenodd" d="M68.44 0.590078L73.455 0.885078C82.895 1.47508 100.3 2.36008 104.135 2.95008C108.855 3.83508 109.445 9.14508 103.545 9.44008H102.66C93.81 10.0301 67.85 10.9151 61.36 9.44008C54.87 8.26008 52.805 5.01508 54.28 2.95008C55.46 0.885078 58.705 7.83205e-05 68.44 0.590078ZM65.785 26.2551C71.39 26.2551 98.53 27.7301 103.25 28.3201C107.97 28.9101 107.97 32.7451 101.775 33.0401L97.35 33.3351C86.435 34.2201 66.08 35.6951 60.475 34.5151C53.985 33.3351 53.395 30.0901 53.69 29.2051C54.28 28.3201 56.05 25.9601 65.785 26.2551ZM106.79 53.1001C102.07 52.5101 76.11 51.9201 70.505 51.9201C60.475 51.9201 58.115 52.2151 57.23 53.9851C56.64 55.1651 55.46 57.8201 61.95 58.1151C70.505 58.7051 98.825 58.4101 106.495 58.1151C112.395 57.8201 111.51 53.3951 106.79 53.1001Z" fill="#404040"/>
<path d="M123.31 123.31V82.305H128.325V105.61L140.125 93.515H146.615L135.405 104.43L147.795 123.31H141.6L131.865 107.97L128.325 111.51V123.31H123.31ZM172.28 123.31V118.885C169.92 122.13 166.97 123.9 162.84 123.9C161.07 123.9 159.595 123.605 158.12 123.015C156.35 122.13 155.465 121.245 154.58 120.36L153.105 116.525L152.81 111.805V93.515H157.825V110.035L158.12 115.345C158.415 116.525 159.005 117.705 160.185 118.59C161.07 119.18 162.25 119.475 164.02 119.475C165.495 119.475 166.97 119.18 168.15 118.295C169.33 117.705 170.51 116.525 170.805 115.345C171.395 113.87 171.69 112.1 171.69 109.445V93.515H176.705V123.31H172.28ZM185.555 123.31V82.305H190.57V123.31H185.555ZM210.335 118.59L211.22 123.31L207.385 123.605C205.615 123.605 204.14 123.31 203.255 122.72C202.075 122.13 201.485 121.54 200.895 120.36C200.6 119.475 200.305 117.705 200.305 114.46V97.35H196.765V93.515H200.305V86.14L205.32 83.19V93.515H210.335V97.35H205.32V114.755L205.615 117.705L206.5 118.59L208.27 118.885L210.335 118.59ZM235.705 123.31V118.885C233.64 122.13 230.395 123.9 226.56 123.9C224.79 123.9 223.02 123.605 221.545 123.015L218.005 120.36L216.53 116.525L216.235 111.805V93.515H221.25V110.035L221.545 115.345C221.84 116.525 222.725 117.705 223.61 118.59C224.79 119.18 225.97 119.475 227.445 119.475C228.92 119.475 230.395 119.18 231.575 118.295C233.05 117.705 233.935 116.525 234.525 115.345C235.115 113.87 235.41 112.1 235.41 109.445V93.515H240.425V123.31H235.705ZM249.275 123.31V93.515H253.7V97.94C254.88 95.875 256.06 94.695 256.945 93.81C257.83 93.22 259.01 92.925 260.19 92.925C261.96 92.925 263.435 93.515 265.205 94.4L263.73 99.12C262.255 98.53 261.075 97.94 259.895 97.94C258.715 97.94 257.83 98.53 256.945 99.12C256.06 99.71 255.47 100.595 255.175 101.775C254.585 103.545 254.29 105.61 254.29 107.675V123.31H249.275ZM289.69 113.575L294.705 114.46C294.115 117.41 292.345 119.77 290.28 121.245C287.92 123.015 285.265 123.9 281.725 123.9C277.3 123.9 274.055 122.72 271.4 119.77C269.04 117.115 267.565 113.575 267.565 108.56C267.565 103.545 269.04 99.71 271.4 97.055C274.055 94.4 277.3 92.925 281.43 92.925C285.56 92.925 288.805 94.105 291.165 97.055C293.82 99.71 295 103.545 295 108.265V109.74H272.875C272.875 112.985 274.055 115.345 275.53 117.115C277.3 118.885 279.365 119.77 281.725 119.77C283.495 119.77 285.265 119.18 286.445 118.295C287.92 117.41 288.805 115.935 289.69 113.575ZM273.17 105.61H289.69C289.395 102.955 288.805 101.185 287.92 100.005C286.15 97.94 284.085 97.055 281.43 97.055C279.365 97.055 277.3 97.645 275.825 99.415C274.055 100.89 273.17 102.955 273.17 105.61Z" fill="#404040"/>
</svg>
