<svg width="294" height="75" viewBox="0 0 294 75" fill="none" xmlns="http://www.w3.org/2000/svg">
<path d="M85.5143 0.326041C68.4255 0.448219 54.4474 19.4411 54.4474 36.0073C54.4474 53.4405 64.6939 74.7061 85.5143 74.6371C106.335 74.5681 117.141 51.6738 117.141 36.0073C117.141 18.7025 102.603 0.203867 85.5143 0.326041ZM85.5143 0.975823C99.817 0.975823 103.676 16.772 103.676 36.0073C103.676 61.3878 99.0211 73.9094 85.5143 73.8855C72.0076 73.8617 67.6135 63.6134 67.6135 36.0073C67.6135 18.7143 71.2117 0.975823 85.5143 0.975823Z" fill="#404040"/>
<path d="M122.784 36.4757C122.707 17.6259 137.794 0.928709 150.565 0.100281C155.178 -0.22653 161.107 1.88592 164.569 3.39075C167.083 4.48348 172.214 2.90179 173.125 0H173.622V25.6769H173.125C173.125 24.5823 168.37 0.745841 150.565 0.745841C137.413 0.745841 136.142 23.8716 136.142 36.4757C136.142 49.0798 136.525 74.0315 151.873 74.0315C159.308 74.0315 164.811 70.7788 166.238 64.1983V44.1893H159.997V43.337H184.187V44.1893H178.22V73.4423H177.735C177.735 73.4423 176.765 69.2215 171.843 69.2355C165.552 69.2535 159.619 74.7188 152.388 74.6523C133.262 74.4764 122.861 55.3254 122.784 36.4757Z" fill="#404040"/>
<path d="M7.53189 2.85495H0V2.0083H26.3846V2.85495H19.7654L38.6179 54.0524C44.5131 35.9027 49.08 22.4865 55.2259 2.85495H48.6787V2.0083H62.6099V2.85495H56.2657L33.3525 74.2852L7.53189 2.85495Z" fill="#404040"/>
<path d="M187.881 56.7973L187.761 2.77287H180.592V1.96362H207.005V2.77287H199.84L199.999 62.0078C201.585 68.7907 204.405 73.9374 214.04 74.014C223.675 74.0907 230.224 68.3145 232.659 60.4208V2.77287H224.457L224.457 1.98746H291.584L291.723 27.9214H291.078C289.833 11.1768 283.372 4.84858 272.072 3.0024C268.184 2.36713 264.105 2.83807 258.949 2.79798V35.8965C263.439 36.2434 268.222 35.9596 271.446 33.191C274.377 30.6735 275.205 24.8568 275.421 22.4937H275.988V51.3122H275.374C275.197 51.3122 274.961 44.0803 271.446 40.6493C267.907 37.1957 263.401 36.3466 258.949 37.1694V72.5259C265.238 72.5259 270.252 73.0586 274.606 71.865C287.841 68.2365 292.5 57.0707 292.464 45.8718H293.2V73.3629H240.548V72.5259H246.502V2.77287H233.639V60.4208C232.181 65.9366 226.853 75.0619 213.197 74.9996C200.501 74.9417 187.908 69.2177 187.881 56.7973Z" fill="#404040"/>
</svg>
