<svg width="102" height="102" viewBox="0 0 102 102" fill="none" xmlns="http://www.w3.org/2000/svg">
<path d="M51 0C22.8336 0 0 22.8336 0 51C0 79.1664 22.8336 102 51 102C79.1664 102 102 79.1664 102 51C101.998 22.8336 79.1639 0 51 0ZM65.1168 72.9266C60.5292 72.9266 56.2704 71.5161 52.7493 69.1064C54.5884 67.4941 56.1807 65.6052 57.4616 63.507C59.6894 64.8726 62.3134 65.6626 65.1193 65.6626C73.2181 65.6626 79.7844 59.0963 79.7844 50.9975C79.7844 42.8987 73.2181 36.3325 65.1193 36.3325C61.2518 36.3325 57.7357 37.8301 55.1142 40.2772V43.5117C55.1366 43.4818 55.1566 43.4519 55.179 43.4245V63.0859C55.1566 63.1183 55.1341 63.1482 55.1142 63.1806V63.2628H55.0594C51.1196 69.0915 44.4512 72.9266 36.8832 72.9266C24.7724 72.9266 14.9566 63.1083 14.9566 51C14.9566 38.8917 24.7748 29.0734 36.8832 29.0734C41.4708 29.0734 45.7296 30.4839 49.2507 32.8936C47.4116 34.5059 45.8193 36.3948 44.5409 38.4905C42.3131 37.1249 39.6891 36.3349 36.8832 36.3349C28.7844 36.3349 22.2181 42.9012 22.2181 51C22.2181 59.0988 28.7844 65.6651 36.8832 65.6651C41.2466 65.6651 45.1664 63.7587 47.8527 60.731V56.9956V37.5336V37.4837C51.8672 32.3628 58.1095 29.0734 65.1193 29.0734C77.2301 29.0734 87.0484 38.8917 87.0484 51C87.0484 63.1083 77.2276 72.9266 65.1168 72.9266Z" fill="#404040"/>
</svg>
